<svg id="Camada_1" data-name="Camada 1" xmlns="http://www.w3.org/2000/svg" viewBox="0 0 1504.54 286.55"><defs><style>.cls-1{fill:#494949;}.cls-2{fill:#f08319;}</style></defs><path class="cls-1" d="M199.52,45.53h47.62V257.08H199.52V167.33h-80v89.75H71.92V45.53h47.62v80.89h80Z"/><path class="cls-1" d="M430,251.58a252.26,252.26,0,0,1-29.91,6.26,246.2,246.2,0,0,1-38.46,2.9q-20.46,0-34-5.5t-21.52-15.41a60,60,0,0,1-11.3-23.66A127.17,127.17,0,0,1,291.4,186V96.51h45.49v83.94q0,22,5.8,31.75T364.36,222q4.89,0,10.38-.46t9.77-1.07V96.51H430Z"/><path class="cls-1" d="M614.37,251.89q-6.11,1.83-14,3.51t-16.64,2.9q-8.7,1.21-17.7,2t-17.25.76q-19.85,0-35.41-5.8a71.18,71.18,0,0,1-26.26-16.63,72.27,72.27,0,0,1-16.33-26.26q-5.64-15.4-5.64-34.64A118.51,118.51,0,0,1,470,142.45a76.66,76.66,0,0,1,14-26.71A60.17,60.17,0,0,1,506.46,99q13.27-5.79,30.37-5.8A71.58,71.58,0,0,1,553.78,95a91.73,91.73,0,0,1,15.11,5.19V27.52l45.48-7.33ZM511.5,175.57q0,21.06,9.46,33.88T549,222.28c4.07,0,7.84-.16,11.3-.46s6.3-.66,8.55-1.07V138a39.72,39.72,0,0,0-11.15-4.58,53.67,53.67,0,0,0-13.88-1.83Q511.49,131.61,511.5,175.57Z"/><path class="cls-2" d="M801.5,216.17v40.91H660.16V45.53h47.62V216.17Z"/><path class="cls-2" d="M911.69,261.35q-22.28,0-38.46-6.26a71.55,71.55,0,0,1-26.71-17.4A69.48,69.48,0,0,1,831,211.13a109,109,0,0,1-5-34V45.53h47.63v127.6q0,12.81,2.9,21.82a40.31,40.31,0,0,0,7.93,14.66,28.41,28.41,0,0,0,12.21,8.09,48.48,48.48,0,0,0,15.72,2.44q17.41,0,28.24-10.69t10.84-36.32V45.53H999V177.1a107.59,107.59,0,0,1-5.19,34.19A70.08,70.08,0,0,1,977.94,238q-10.7,11.15-27.17,17.24T911.69,261.35Z"/><path class="cls-2" d="M1141.25,261.35q-51.59,0-78.61-28.7t-27-81.5q0-26.25,8.24-46.86a100.91,100.91,0,0,1,22.59-34.8A94.38,94.38,0,0,1,1100.65,48a123.17,123.17,0,0,1,43-7.33,137.14,137.14,0,0,1,24.42,2,158,158,0,0,1,19.24,4.58,95.08,95.08,0,0,1,13.73,5.34q5.51,2.75,7.94,4.27l-13.74,38.46a115.6,115.6,0,0,0-22.74-8.85,108.63,108.63,0,0,0-29.46-3.66,65.14,65.14,0,0,0-21.52,3.66,48.68,48.68,0,0,0-18.62,11.76q-8.09,8.09-13,20.91t-4.89,31.13a110.93,110.93,0,0,0,3.21,27.32,57.68,57.68,0,0,0,10.38,21.83,49.68,49.68,0,0,0,18.77,14.5q11.6,5.34,28.08,5.34a127.32,127.32,0,0,0,18.63-1.22,137.57,137.57,0,0,0,14.65-2.9,76.24,76.24,0,0,0,11.29-3.81q4.89-2.14,8.86-4l13.12,38.16q-10.07,6.11-28.39,11T1141.25,261.35Z"/><path class="cls-2" d="M1393.07,257.08q-3.54-11-7.59-22.65l-8.1-23.14h-82.62l-8,23.2q-4,11.64-7.5,22.59h-49.45q11.94-34.18,22.65-63.19t21-54.65q10.27-25.64,20.21-48.69t20.68-45h45.14q10.42,22,20.55,45t20.39,48.69q10.28,25.65,21,54.65t22.69,63.19ZM1335.86,93.45q-1.6,4.62-4.67,12.54t-7,18.33q-3.92,10.4-8.76,22.9t-9.85,26.21h60.5q-4.86-13.76-9.41-26.29T1348,124.2q-4.1-10.4-7.18-18.32T1335.86,93.45Z"/></svg>