<?xml version="1.0" encoding="UTF-8"?>
<!DOCTYPE svg PUBLIC "-//W3C//DTD SVG 1.1//EN" "http://www.w3.org/Graphics/SVG/1.1/DTD/svg11.dtd">
<!-- Creator: CorelDRAW 2018 (64 Bit Versão de avaliação) -->
<svg xmlns="http://www.w3.org/2000/svg" xml:space="preserve" width="210mm" height="297mm" version="1.1" style="shape-rendering:geometricPrecision; text-rendering:geometricPrecision; image-rendering:optimizeQuality; fill-rule:evenodd; clip-rule:evenodd"
viewBox="0 0 21000 29700"
 xmlns:xlink="http://www.w3.org/1999/xlink">
 <defs>
  <style type="text/css">
   <![CDATA[
    .fil1 {fill:#4E7896}
    .fil0 {fill:#F48219}
   ]]>
  </style>
   <clipPath id="id0">
    <rect x="26193.46" y="3349.06" width="16368.88" height="16404.16"/>
   </clipPath>
 </defs>
 <g id="Camada_x0020_1">
  <metadata id="CorelCorpID_0Corel-Layer"/>
  <g style="clip-path:url(#id0)">
   <image x="26193.46" y="3349.06" width="16368.88" height="16404.16" xlink:href="java_logo_Images\java_logo_ImgID1.png"/>
  </g>
  <path class="fil0" d="M7966.14 10291.15c-161.44,-519.83 -966.87,-1237.1 -1134.71,-2062.6 -171.89,-845.39 490.12,-1621.19 1074.71,-2090.02l1038.33 -936.65c73.18,-83.06 116.94,-145.22 193.12,-230.87 657.97,-739.78 1158.15,-2030.29 457.67,-2885.09l-10.74 145.78c6.47,49.91 23.24,113.98 29.98,176.17 41.29,380.8 -9.79,781.94 -146.24,1129.23 -272.39,693.32 -1036.64,1406.66 -1628.41,1829.92 -601.32,430.09 -1387.79,1049.58 -1706.5,1750.23 -393.75,865.61 517.24,1970 1125.18,2553.09 237.5,227.78 470.8,470.45 707.61,620.81z"/>
  <path class="fil1" d="M12714.24 15074.05c255.85,426.07 -486.33,591.01 -839.95,677.31 -453.26,110.61 -966.77,161.73 -1436.6,213.57 -1695.45,187.07 -4520.74,235.84 -6181.65,-86.08 -1002.25,-194.26 -1319.31,-466.31 -117.46,-772.97 173.78,-44.34 528.89,-85.29 654.48,-138.08 -852.87,-273.5 -3424.22,760.56 -1931.53,1146.31 2079.57,537.42 7152.36,576.58 9197.9,-178.37 372,-137.29 1356.86,-537.44 654.81,-861.69z"/>
  <path class="fil0" d="M8661.3 10802.22c343.44,-82.57 1090.96,-775.19 1108.8,-1387.74 11.49,-394.43 -221.61,-634.56 -375.91,-857.14 -683.69,-986.2 -701.3,-1459.98 420.27,-2344.8 224.34,-176.99 460,-347.13 723.1,-511.43 149,-93.06 658.77,-390.55 761.26,-502.09 -424.14,39.36 -1469.05,541.92 -1800.64,732.27 -1318.86,757.1 -1948.42,1797.69 -982.22,3116.22 438.33,598.16 803.53,788.49 145.34,1754.71z"/>
  <path class="fil1" d="M10392.47 14530.35c-86.75,-74.12 -350.18,-163.91 -486.15,-239.41 -201.2,-111.71 -247.14,-187.49 -511.1,-142.31 -431.96,73.94 -827.62,146.09 -1271.86,176.46 -493,33.7 -903.61,5.22 -1386.23,-45.1 -210.71,-21.97 -440,-40.2 -641.76,-97.69 -296.73,-84.54 -278.27,-158.72 -138.21,-358.66 -208.97,24.15 -544.44,215.78 -615.94,336.13 -334.96,563.82 1412.86,843.03 1853.62,868.37 598.21,34.4 1180,24.81 1761.26,-80.07 339.56,-61.26 1204.9,-251.45 1436.37,-417.72z"/>
  <path class="fil1" d="M4731.49 11121.75c8.63,-391.34 1069.42,-520.69 1490.81,-711.71 -715.81,-36.75 -1972.17,306.15 -2471.72,639.95 -728.8,486.98 1802.65,656.99 2131.3,665.85 980.86,26.43 1984.92,14.39 2954.91,-94.15 453.86,-50.78 1550.27,-187.83 1929.09,-401.76 124.38,-70.25 347.31,-228.64 465.2,-229.47 -261.69,-19.24 -1197.98,165.59 -1556.82,204.6 -1001.31,108.85 -4343.97,357.86 -4942.77,-73.31z"/>
  <path class="fil1" d="M5461.41 12536.78c-18.66,-241.86 13.05,-223.49 126.53,-369.98 -599.4,166.93 -1164.93,575.18 -323.91,908.64 1391.91,551.9 4078.17,221.16 5398.55,-173.52 -64.64,-35.2 -179.27,-85.64 -259.07,-132.19 -466.71,-272.23 -124.62,-283.82 -824.82,-158.49 -419.21,75.04 -922.29,146.75 -1352.59,172.4 -666.46,39.73 -2217.01,76.87 -2764.69,-246.86z"/>
  <path class="fil1" d="M13608.93 15840.05c-1001.44,1435.17 -7568.72,1066.62 -9161.36,959.05 1208.18,693.12 8941.57,728.15 9161.36,-959.05z"/>
  <path class="fil1" d="M11592.11 10457.72c99.77,84.27 -71.05,64.12 308.76,-2.6 664.26,-116.69 1380.65,570.74 964.31,1382.77 -389.12,758.94 -1198.43,1060.3 -1524.34,1297.11 -99.93,72.61 -37.14,-7.85 -92.59,99.15 967.32,-190.66 2031.02,-785.87 2299.04,-1488.59 446,-1169.34 -1017.02,-1849.32 -1955.18,-1287.84z"/>
 </g>
</svg>
